<svg id="Layer_1" data-name="Layer 1" xmlns="http://www.w3.org/2000/svg" width="18" height="26" viewBox="0 0 18 26"><title>green-marker</title><path d="M9,25.5c-.2,0-.3-.2-.5-.6a21.4425,21.4425,0,0,0-3.6-6.4,5.4936,5.4936,0,0,0-.7-.9C2.7,15.6.5,13,.5,9a8.5,8.5,0,0,1,17,0c0,4-2.1,6.6-3.7,8.6a5.4936,5.4936,0,0,0-.7.9,21.4425,21.4425,0,0,0-3.6,6.4C9.3,25.3,9.2,25.5,9,25.5Z" fill="#0b3105"/><path d="M9,.7a8.2371,8.2371,0,0,1,8.2,8.2c0,3.9-2.1,6.5-3.6,8.4a5.4936,5.4936,0,0,0-.7.9,20.763,20.763,0,0,0-3.6,6.5c-.1.3-.2.5-.3.5s-.2-.2-.3-.5a24.4271,24.4271,0,0,0-3.6-6.5,5.4936,5.4936,0,0,0-.7-.9C2.9,15.4.8,12.7.8,8.9A8.2371,8.2371,0,0,1,9,.7M9,.2A8.7064,8.7064,0,0,0,.3,8.9c0,4.7,3,7.7,4.4,9.7A23.8778,23.8778,0,0,1,8.3,25c.1.4.3.8.7.8s.6-.4.7-.8a21.4425,21.4425,0,0,1,3.6-6.4c1.4-1.9,4.4-4.9,4.4-9.7A8.7064,8.7064,0,0,0,9,.2Z" fill="#ede8d6"/><circle cx="9" cy="8.9" r="3.1" fill="#fff"/></svg>
